GRF
version=1
nRows=37
nColumns=19
inDegrees=no
endheader
time	plate1_ground_force_vx	plate1_ground_force_vy	plate1_ground_force_vz	plate1_ground_force_px	plate1_ground_force_py	plate1_ground_force_pz	plate1_ground_torque_x	plate1_ground_torque_y	plate1_ground_torque_z	plate2_ground_force_vx	plate2_ground_force_vy	plate2_ground_force_vz	plate2_ground_force_px	plate2_ground_force_py	plate2_ground_force_pz	plate2_ground_torque_x	plate2_ground_torque_y	plate2_ground_torque_z
      2.61000000	     61.84212109	    409.62672102	      6.16456633	      1.02085443	      0.00000000	      0.17802766	      0.00000000	      3.17131282	      0.00000000	    -64.25217187	    454.84511969	     -5.65491130	      1.44122369	      0.00000000	      0.21364105	      0.00000000	     -3.49513238	     -0.00000000
      2.62000000	     61.88143771	    409.74637836	      6.10710207	      1.02075075	      0.00000000	      0.17815813	      0.00000000	      3.16606147	      0.00000000	    -64.23467262	    454.88931270	     -5.63355630	      1.44127066	      0.00000000	      0.21362349	     -0.00000000	     -3.50284296	     -0.00000000
      2.63000000	     61.91213196	    409.84390807	      6.06539521	      1.02065472	      0.00000000	      0.17828348	      0.00000000	      3.16196647	      0.00000000	    -64.20659935	    454.87240687	     -5.60751825	      1.44128465	      0.00000000	      0.21359258	     -0.00000000	     -3.51214084	     -0.00000000
      2.64000000	     61.93073164	    409.92073720	      6.04201889	      1.02057771	      0.00000000	      0.17839118	      0.00000000	      3.15928475	      0.00000000	    -64.17278405	    454.79566672	     -5.58294329	      1.44127039	      0.00000000	      0.21355013	     -0.00000000	     -3.52133911	     -0.00000000
      2.65000000	     61.93402993	    409.97705826	      6.03526234	      1.02052647	      0.00000000	      0.17847174	     -0.00000000	      3.15790620	      0.00000000	    -64.13779659	    454.68297622	     -5.56507951	      1.44123970	      0.00000000	      0.21350039	     -0.00000000	     -3.52876228	     -0.00000000
      2.66000000	     61.92064172	    410.00861456	      6.03968839	      1.02050138	      0.00000000	      0.17851996	     -0.00000000	      3.15753834	      0.00000000	    -64.10460532	    454.57515542	     -5.55653150	      1.44120672	      0.00000000	      0.21344802	     -0.00000000	     -3.53332621	     -0.00000000
      2.67000000	     61.89223659	    410.00772191	      6.04783481	      1.02049706	      0.00000000	      0.17853590	     -0.00000000	      3.15791082	      0.00000000	    -64.07449967	    454.51350542	     -5.55675376	      1.44118248	      0.00000000	      0.21339588	     -0.00000000	     -3.53485861	     -0.00000000
      2.68000000	     61.85344680	    409.96813425	      6.05239639	      1.02050467	      0.00000000	      0.17852487	     -0.00000000	      3.15885080	      0.00000000	    -64.04793091	    454.52087830	     -5.56274390	      1.44117080	      0.00000000	      0.21334407	     -0.00000000	     -3.53405622	     -0.00000000
      2.69000000	     61.81026700	    409.89047171	      6.04821705	      1.02051520	      0.00000000	      0.17849604	     -0.00000000	      3.16020082	      0.00000000	    -64.02546220	    454.59031582	     -5.57036239	      1.44116705	      0.00000000	      0.21329046	     -0.00000000	     -3.53214357	     -0.00000000
      2.70000000	     61.76782559	    409.78486976	      6.03354838	      1.02052244	      0.00000000	      0.17845972	     -0.00000000	      3.16168597	      0.00000000	    -64.00816163	    454.68759435	     -5.57557492	      1.44115976	      0.00000000	      0.21323236	     -0.00000000	     -3.53039882	     -0.00000000
      2.71000000	     61.72887185	    409.66992344	      6.01022063	      1.02052479	      0.00000000	      0.17842442	     -0.00000000	      3.16287491	      0.00000000	    -63.99731358	    454.76700352	     -5.57518871	      1.44113470	      0.00000000	      0.21316812	     -0.00000000	     -3.52972734	     -0.00000000
      2.72000000	     61.69384189	    409.56929126	      5.98271312	      1.02052512	      0.00000000	      0.17839497	     -0.00000000	      3.16330352	      0.00000000	    -63.99382449	    454.79285632	     -5.56713545	      1.44108058	      0.00000000	      0.21309792	     -0.00000000	     -3.53041354	     -0.00000000
      2.73000000	     61.66229914	    409.50744467	      5.95654629	      1.02052886	      0.00000000	      0.17837227	     -0.00000000	      3.16270625	      0.00000000	    -63.99782329	    454.75607826	     -5.55070185	      1.44099445	      0.00000000	      0.21302367	     -0.00000000	     -3.53210303	     -0.00000000
      2.74000000	     61.63462206	    409.50456464	      5.93667847	      1.02054129	      0.00000000	      0.17835403	     -0.00000000	      3.16122056	      0.00000000	    -64.00869704	    454.67770812	     -5.52703292	      1.44088481	      0.00000000	      0.21294874	     -0.00000000	     -3.53399478	     -0.00000000
      2.75000000	     61.61262810	    409.56998464	      5.92648572	      1.02056546	      0.00000000	      0.17833572	     -0.00000000	      3.15943589	      0.00000000	    -64.02543658	    454.59814888	     -5.49975355	      1.44077041	      0.00000000	      0.21287792	     -0.00000000	     -3.53516833	     -0.00000000
      2.76000000	     61.59852342	    409.69547883	      5.92752679	      1.02060142	      0.00000000	      0.17831154	     -0.00000000	      3.15823576	      0.00000000	    -64.04699504	    454.55847054	     -5.47506575	      1.44067458	      0.00000000	      0.21281749	     -0.00000000	     -3.53492892	     -0.00000000
      2.77000000	     61.59276845	    409.85263110	      5.93989639	      1.02064681	      0.00000000	      0.17827579	     -0.00000000	      3.15848118	      0.00000000	    -64.07245966	    454.58350447	     -5.46066806	      1.44061701	      0.00000000	      0.21277484	     -0.00000000	     -3.53303551	     -0.00000000
      2.78000000	     61.59238249	    409.99885210	      5.96273145	      1.02069799	      0.00000000	      0.17822519	     -0.00000000	      3.16065931	      0.00000000	    -64.10103683	    454.67418932	     -5.46344813	      1.44060687	      0.00000000	      0.21275701	     -0.00000000	     -3.52972101	     -0.00000000
      2.79000000	     61.59115075	    410.09225873	      5.99444321	      1.02075093	      0.00000000	      0.17816134	     -0.00000000	      3.16464769	      0.00000000	    -64.13194309	    454.81076152	     -5.48672858	      1.44064027	      0.00000000	      0.21276823	     -0.00000000	     -3.52553332	     -0.00000000
      2.80000000	     61.58203108	    410.10902563	      6.03253481	      1.02080180	      0.00000000	      0.17809156	     -0.00000000	      3.16971281	      0.00000000	    -64.16425238	    454.96299036	     -5.52828442	      1.44070336	      0.00000000	      0.21280730	     -0.00000000	     -3.52114445	     -0.00000000
      2.81000000	     61.56052211	    410.05348223	      6.07331453	      1.02084750	      0.00000000	      0.17802680	     -0.00000000	      3.17477381	      0.00000000	    -64.19671465	    455.10170427	     -5.58009033	      1.44077861	      0.00000000	      0.21286585	     -0.00000000	     -3.51727588	     -0.00000000
      2.82000000	     61.52697974	    409.95474090	      6.11209268	      1.02088633	      0.00000000	      0.17797731	     -0.00000000	      3.17883728	      0.00000000	    -64.22763865	    455.20742257	     -5.63003242	      1.44085086	      0.00000000	      0.21292886	     -0.00000000	     -3.51474466	     -0.00000000
      2.83000000	     61.48647746	    409.85191309	      6.14421978	      1.02091866	      0.00000000	      0.17794818	     -0.00000000	      3.18140094	      0.00000000	    -64.25502836	    455.27469634	     -5.66511591	      1.44091039	      0.00000000	      0.21297811	     -0.00000000	     -3.51447330	     -0.00000000
      2.84000000	     61.44637939	    409.77675639	      6.16665111	      1.02094709	      0.00000000	      0.17793744	     -0.00000000	      3.18260534	      0.00000000	    -64.27709831	    455.31235800	     -5.67527905	      1.44095262	      0.00000000	      0.21299803	     -0.00000000	     -3.51730071	     -0.00000000
      2.85000000	     61.41318365	    409.74292630	      6.17914137	      1.02097594	      0.00000000	      0.17793747	     -0.00000000	      3.18302889	      0.00000000	    -64.29303776	    455.33990700	     -5.65672119	      1.44097646	      0.00000000	      0.21298155	     -0.00000000	     -3.52361237	     -0.00000000
      2.86000000	     61.39043365	    409.74535955	      6.18421894	      1.02100990	      0.00000000	      0.17793851	     -0.00000000	      3.18323065	      0.00000000	    -64.30363070	    455.38035334	     -5.61359333	      1.44098302	      0.00000000	      0.21293345	     -0.00000000	     -3.53301623	     -0.00000000
      2.87000000	     61.37852825	    409.76679922	      6.18579009	      1.02105247	      0.00000000	      0.17793224	     -0.00000000	      3.18331858	      0.00000000	    -64.31128334	    455.45131798	     -5.55714283	      1.44097553	      0.00000000	      0.21286913	     -0.00000000	     -3.54432618	     -0.00000000
      2.88000000	     61.37592096	    409.78600259	      6.18707198	      1.02110434	      0.00000000	      0.17791399	     -0.00000000	      3.18282541	      0.00000000	    -64.31922717	    455.55805662	     -5.50216832	      1.44095996	      0.00000000	      0.21280896	     -0.00000000	     -3.55592985	     -0.00000000
      2.89000000	     61.38049944	    409.78430282	      6.18897655	      1.02116241	      0.00000000	      0.17788321	     -0.00000000	      3.18098117	      0.00000000	    -64.33006135	    455.69195733	     -5.46181387	      1.44094494	      0.00000000	      0.21277044	     -0.00000000	     -3.56635887	     -0.00000000
      2.90000000	     61.39026740	    409.75039926	      6.18983689	      1.02121960	      0.00000000	      0.17784267	     -0.00000000	      3.17720326	      0.00000000	    -64.34420466	    455.83514624	     -5.44274233	      1.44094034	      0.00000000	      0.21276156	     -0.00000000	     -3.57474997	     -0.00000000
      2.91000000	     61.40331496	    409.68406174	      6.18665744	      1.02126606	      0.00000000	      0.17779711	     -0.00000000	      3.17147219	      0.00000000	    -64.35904671	    455.96819338	     -5.44287420	      1.44095439	      0.00000000	      0.21277807	     -0.00000000	     -3.58096816	     -0.00000000
      2.92000000	     61.41761527	    409.59790210	      6.17725722	      1.02129201	      0.00000000	      0.17775193	     -0.00000000	      3.16434164	      0.00000000	    -64.36942608	    456.07650569	     -5.45285588	      1.44099052	      0.00000000	      0.21280593	     -0.00000000	     -3.58538085	     -0.00000000
      2.93000000	     61.43103795	    409.51529241	      6.16216175	      1.02129152	      0.00000000	      0.17771203	     -0.00000000	      3.15658924	      0.00000000	    -64.36947571	    456.15266388	     -5.46064942	      1.44104533	      0.00000000	      0.21282759	     -0.00000000	     -3.58846547	     -0.00000000
      2.94000000	     61.44150497	    409.46383095	      6.14516776	      1.02126550	      0.00000000	      0.17768073	     -0.00000000	      3.14876375	      0.00000000	    -64.35511131	    456.19483493	     -5.45708396	      1.44110926	      0.00000000	      0.21282930	     -0.00000000	     -3.59049040	     -0.00000000
      2.95000000	     61.44706322	    409.46650022	      6.13218039	      1.02122231	      0.00000000	      0.17765894	     -0.00000000	      3.14094548	      0.00000000	    -64.32597647	    456.20311675	     -5.43978482	      1.44116981	      0.00000000	      0.21280643	     -0.00000000	     -3.59142267	     -0.00000000
      2.96000000	     61.44595220	    409.53439733	      6.12888711	      1.02117527	      0.00000000	      0.17764459	     -0.00000000	      3.13287256	      0.00000000	    -64.28586127	    456.17566921	     -5.41381316	      1.44121595	      0.00000000	      0.21276475	     -0.00000000	     -3.59106048	     -0.00000000
      2.97000000	     61.43700910	    409.66432048	      6.13852282	      1.02113792	      0.00000000	      0.17763318	     -0.00000000	      3.12432287	      0.00000000	    -64.24139629	    456.10588619	     -5.38901008	      1.44124161	      0.00000000	      0.21271770	     -0.00000000	     -3.58926112	     -0.00000000
